<svg id="Passenger-Plus--Streamline-Carbon.svg" xmlns="http://www.w3.org/2000/svg" viewBox="-0.5 -0.5 25 25" height="25" width="25"><desc>Passenger Plus Streamline Icon: https://streamlinehq.com</desc><defs></defs><path d="M7.875 6.75A2.625 2.625 0 1 1 10.5 4.125 2.6281499999999998 2.6281499999999998 0 0 1 7.875 6.75Zm0 -3.75A1.125 1.125 0 1 0 9 4.125 1.1262750000000001 1.1262750000000001 0 0 0 7.875 3Z" stroke-width="1"></path><path d="M16.855425 23.48475 14.504999999999999 18h-5.326124999999999a3.0054 3.0054 0 0 1 -2.8996500000000003 -2.2280249999999997l-1.22535 -4.5945a2.9241 2.9241 0 0 1 5.650650000000001 -1.5069L11.3256 12H15.75v1.5h-5.577225l-0.9169499999999999 -3.4431a1.4249999999999998 1.4249999999999998 0 0 0 -2.753175 0.73425l1.22535 4.594125A1.503825 1.503825 0 0 0 9.178875 16.5h6.3149999999999995l2.7407250000000003 6.39405Z" stroke-width="1"></path><path d="m22.5 4.5 -3 0 0 -3 -1.5 0 0 3 -3 0 0 1.5 3 0 0 3 1.5 0 0 -3 3 0 0 -1.5z" stroke-width="1"></path><path d="M13.5 21H5.825699999999999a1.501875 1.501875 0 0 1 -1.4494500000000001 -1.1136750000000002L1.52475 9.193200000000001l1.4494500000000001 -0.38639999999999997L5.825699999999999 19.5H13.5Z" stroke-width="1"></path><path id="_Transparent_Rectangle_" d="M0 0h24v24H0Z" fill="none" stroke-width="1"></path></svg>